<?xml version="1.0" encoding="UTF-8"?>
<svg width="72px" height="72px" viewBox="0 0 72 72" version="1.1" xmlns="http://www.w3.org/2000/svg" xmlns:xlink="http://www.w3.org/1999/xlink">
    <!-- Generator: Sketch 48.2 (47327) - http://www.bohemiancoding.com/sketch -->
    <title>ihsn-logo</title>
    <desc>Created with Sketch.</desc>
    <defs>
        <path d="M4.9702,7.5776 L2.6655,5.6953 C1.1309,4.4429 0.1816,2.4722 0.1816,0.083 L2.4858,1.9644" id="path-1"></path>
        <path d="M5.271,7.5195 L2.9673,5.6382 C1.4321,4.3853 0.4829,2.4155 0.4829,0.0254 L2.7871,1.9067" id="path-3"></path>
        <path d="M14.6587,2.0073 L16.9624,3.8887 C15.4287,2.6357 13.3081,2.1001 10.9663,2.5776 C6.2827,3.5342 2.4858,8.1841 2.4858,12.9644 L0.1816,11.083 C0.1816,6.3023 3.9785,1.6524 8.6621,0.6968" id="path-5"></path>
        <path d="M14.96,1.9502 L17.2647,3.8315 C15.73,2.5786 13.6099,2.043 11.2681,2.521 C6.5845,3.4766 2.7871,8.1265 2.7871,12.9067 L0.4829,11.0254 C0.4829,6.2451 4.2803,1.5952 8.9634,0.6397" id="path-7"></path>
        <path d="M3.2739,8.294 L0.9692,6.4126 C4.1411,5.7647 6.9053,3.4229 8.3599,0.4946 L10.6645,2.3765" id="path-9"></path>
        <path d="M5.6123,7.9033 L3.3076,6.022 C1.7734,4.769 0.8237,2.7993 0.8237,0.4087 L3.1284,2.291" id="path-11"></path>
        <path d="M3.2783,1.9829 L0.9736,0.1006 C2.5078,1.354 4.6274,1.8897 6.9692,1.4126 L9.2739,3.294" id="path-13"></path>
        <path d="M0.9658,0.4131 L3.2705,2.2949 C4.8047,3.5474 5.7544,5.5176 5.7544,7.9077 C5.7544,9.4507 5.3579,10.98 4.6645,12.3765 L2.3599,10.4946 C3.0537,9.0986 3.4497,7.5693 3.4497,6.0254" id="path-15"></path>
        <path d="M15.3008,2.334 L17.605,4.2158 C16.0708,2.9629 13.9502,2.4268 11.6089,2.9043 C6.9253,3.8604 3.1284,8.5107 3.1284,13.291 L0.8237,11.4087 C0.8237,6.6289 4.6206,1.9795 9.3042,1.023" id="path-17"></path>
        <path d="M6.2349,6.4707 L3.9307,4.5884 C2.5537,3.4644 1.3701,2.1045 0.3164,0.458 L2.6206,2.3389" id="path-19"></path>
        <path d="M5.6206,41.3389 L3.3164,39.458 C-3.0093,29.5674 0.7446,14.5029 11.7007,5.811 C15.3491,2.9165 18.9409,1.2012 23.1538,0.3408 L25.458,2.2227 C21.2456,3.0825 17.6533,4.7979 14.0049,7.6924" id="path-21"></path>
    </defs>
    <g id="Page-1" stroke="none" stroke-width="1" fill="none" fill-rule="evenodd">
        <g id="ihsn-logo">
            <g id="Page-1">
                <path d="M35.7612,0 C16.0098,0 0,16.0102 0,35.7612 L0,71.4604 L35.7612,71.52 C55.5093,71.52 71.52,55.5078 71.52,35.7612 L71.52,0.063 L35.7612,0 Z" id="Fill-1" fill="#A6CAF0"></path>
                <path d="M38.9702,66.0976 L36.6655,64.2153 C35.1309,62.9629 34.1816,60.9922 34.1816,58.603 L36.4858,60.4844 C36.4858,62.874 37.4351,64.8442 38.9702,66.0976 Z" id="Fill-2" fill="#B0DA11"></path>
                <g id="Group-5" transform="translate(34.000000, 58.520000)">
                    <mask id="mask-2" fill="white">
                        <use xlink:href="#path-1"></use>
                    </mask>
                    <g id="Clip-4"></g>
                    <path d="M4.9702,7.5776 L2.6655,5.6953 C1.1309,4.4429 0.1816,2.4722 0.1816,0.083 L2.4858,1.9644 C2.4858,4.354 3.4351,6.3242 4.9702,7.5776" id="Fill-3" fill="#3366FF" mask="url(#mask-2)"></path>
                </g>
                <polygon id="Fill-6" fill="#A4BFD2" points="41.6645 37.8965 39.3599 36.0146 51.9912 40.8794 54.2954 42.7612"></polygon>
                <path d="M54.271,46.0395 L51.9673,44.1582 C50.4321,42.9053 49.4829,40.9355 49.4829,38.5454 L51.7871,40.4267 C51.7871,42.8169 52.7368,44.7871 54.271,46.0395 Z" id="Fill-7" fill="#FFFFFF"></path>
                <g id="Group-10" transform="translate(49.000000, 38.520000)">
                    <mask id="mask-4" fill="white">
                        <use xlink:href="#path-3"></use>
                    </mask>
                    <g id="Clip-9"></g>
                    <path d="M5.271,7.5195 L2.9673,5.6382 C1.4321,4.3853 0.4829,2.4155 0.4829,0.0254 L2.7871,1.9067 C2.7871,4.2969 3.7368,6.2671 5.271,7.5195" id="Fill-8" fill="#3297AF" mask="url(#mask-4)"></path>
                </g>
                <path d="M48.6587,49.5273 L50.9624,51.4087 C49.4287,50.1557 47.3081,49.6201 44.9663,50.0976 C40.2827,51.0542 36.4858,55.7041 36.4858,60.4844 L34.1816,58.603 C34.1816,53.8223 37.9785,49.1724 42.6621,48.2168 C45.0034,47.7388 47.1235,48.2744 48.6587,49.5273 Z" id="Fill-11" fill="#B0DA11"></path>
                <g id="Group-30" transform="translate(34.000000, 47.520000)">
                    <mask id="mask-6" fill="white">
                        <use xlink:href="#path-5"></use>
                    </mask>
                    <g id="Clip-13"></g>
                    <path d="M2.4858,12.9644 L0.1816,11.083 C0.1816,7.9258 1.8374,4.8267 4.3101,2.8096 L6.6143,4.6919 C4.1416,6.7085 2.4858,9.8081 2.4858,12.9644" id="Fill-12" fill="#3366FF" mask="url(#mask-6)"></path>
                    <path d="M6.6143,4.6919 L4.3101,2.8096 C4.5664,2.6011 4.8311,2.4038 5.1045,2.2188 L7.4087,4.1006 C7.1353,4.2852 6.8711,4.4824 6.6143,4.6919" id="Fill-14" fill="#2F9D2D" mask="url(#mask-6)"></path>
                    <path d="M7.4087,4.1006 L5.1045,2.2188 C5.3198,2.0728 5.541,1.9351 5.7661,1.8057 L8.0703,3.687 C7.8452,3.8164 7.624,3.9551 7.4087,4.1006" id="Fill-15" fill="#34A02C" mask="url(#mask-6)"></path>
                    <path d="M8.0703,3.687 L5.7656,1.8057 C5.9604,1.6934 6.1582,1.5879 6.3589,1.4893 L8.6636,3.3711 C8.4624,3.4697 8.2651,3.5752 8.0703,3.687" id="Fill-16" fill="#3AA32B" mask="url(#mask-6)"></path>
                    <path d="M8.6636,3.3711 L6.3589,1.4893 C6.5415,1.3994 6.727,1.3154 6.9145,1.2378 L9.2183,3.1187 C9.0313,3.1973 8.8462,3.2817 8.6636,3.3711" id="Fill-17" fill="#3FA52A" mask="url(#mask-6)"></path>
                    <path d="M9.2183,3.1187 L6.9145,1.2378 C7.0908,1.1631 7.269,1.0947 7.4492,1.0317 L9.7534,2.9136 C9.5737,2.9766 9.395,3.0449 9.2183,3.1187" id="Fill-18" fill="#45A828" mask="url(#mask-6)"></path>
                    <path d="M9.7534,2.9136 L7.4492,1.0317 C7.6216,0.9717 7.7959,0.916 7.9722,0.8652 L10.2769,2.7471 C10.1006,2.7974 9.9263,2.8525 9.7534,2.9136" id="Fill-19" fill="#4BAB27" mask="url(#mask-6)"></path>
                    <path d="M10.2769,2.7471 L7.9722,0.8652 C8.1431,0.8169 8.3149,0.7725 8.4883,0.7339 L10.793,2.6152 C10.6196,2.6538 10.4473,2.6987 10.2769,2.7471" id="Fill-20" fill="#50AD26" mask="url(#mask-6)"></path>
                    <path d="M10.793,2.6152 L8.4883,0.7339 C8.5459,0.7207 8.604,0.708 8.6621,0.6968 C8.7788,0.6729 8.8936,0.6514 9.0088,0.6328 L11.313,2.5147 C11.1983,2.5332 11.0825,2.5547 10.9663,2.5776 C10.9082,2.5899 10.8511,2.6021 10.793,2.6152" id="Fill-21" fill="#56B025" mask="url(#mask-6)"></path>
                    <path d="M11.313,2.5147 L9.0088,0.6328 C9.1831,0.6045 9.356,0.5815 9.5278,0.564 L11.832,2.4458 C11.6606,2.4634 11.4873,2.4858 11.313,2.5147" id="Fill-22" fill="#5BB224" mask="url(#mask-6)"></path>
                    <path d="M11.832,2.4458 L9.5278,0.564 C9.7026,0.5469 9.8765,0.5347 10.0479,0.5283 L12.3525,2.4102 C12.1802,2.416 12.0068,2.4282 11.832,2.4458" id="Fill-23" fill="#61B522" mask="url(#mask-6)"></path>
                    <path d="M12.3525,2.4102 L10.0479,0.5283 C10.2305,0.5225 10.4106,0.5215 10.5884,0.5274 L12.8926,2.4092 C12.7153,2.4033 12.5347,2.4038 12.3525,2.4102" id="Fill-24" fill="#67B821" mask="url(#mask-6)"></path>
                    <path d="M12.8926,2.4092 L10.5884,0.5274 C10.7808,0.5342 10.9697,0.5474 11.1567,0.5679 L13.4604,2.4492 C13.2739,2.4287 13.085,2.415 12.8926,2.4092" id="Fill-25" fill="#6CBA20" mask="url(#mask-6)"></path>
                    <path d="M13.4604,2.4492 L11.1567,0.5679 C11.3638,0.5903 11.5679,0.6221 11.7686,0.6616 L14.0728,2.543 C13.8721,2.5034 13.6685,2.4722 13.4604,2.4492" id="Fill-26" fill="#72BD1F" mask="url(#mask-6)"></path>
                    <path d="M14.0728,2.543 L11.7686,0.6616 C12.0039,0.708 12.2339,0.7661 12.4585,0.835 L14.7627,2.7168 C14.5381,2.648 14.3081,2.5894 14.0728,2.543" id="Fill-27" fill="#78C01D" mask="url(#mask-6)"></path>
                    <path d="M14.7627,2.7168 L12.4585,0.835 C12.7695,0.9307 13.0703,1.0479 13.3579,1.1851 L15.6621,3.0664 C15.3745,2.9297 15.0742,2.813 14.7627,2.7168" id="Fill-28" fill="#7DC21C" mask="url(#mask-6)"></path>
                    <path d="M15.6621,3.0664 L13.3579,1.1851 C13.8262,1.4077 14.2622,1.6836 14.6587,2.0073 L16.9624,3.8887 C16.5664,3.5654 16.1309,3.2896 15.6621,3.0664" id="Fill-29" fill="#83C51B" mask="url(#mask-6)"></path>
                </g>
                <path d="M63.96,29.4702 L66.2647,31.3515 C64.73,30.0986 62.6099,29.563 60.2681,30.041 C55.5845,30.9966 51.7871,35.6465 51.7871,40.4267 L49.4829,38.5454 C49.4829,33.7651 53.2803,29.1152 57.9634,28.1597 C60.3057,27.6811 62.4253,28.2173 63.96,29.4702 Z" id="Fill-31" fill="#FFFFFF"></path>
                <g id="Group-50" transform="translate(49.000000, 27.520000)">
                    <mask id="mask-8" fill="white">
                        <use xlink:href="#path-7"></use>
                    </mask>
                    <g id="Clip-33"></g>
                    <path d="M2.7871,12.9067 L0.4829,11.0254 C0.4829,7.8691 2.1387,4.7695 4.6118,2.7524 L6.916,4.6338 C4.4434,6.6509 2.7871,9.751 2.7871,12.9067" id="Fill-32" fill="#3297AF" mask="url(#mask-8)"></path>
                    <path d="M6.916,4.6338 L4.6118,2.7524 C4.8677,2.5435 5.1328,2.3467 5.4053,2.1616 L7.71,4.043 C7.437,4.228 7.1719,4.4253 6.916,4.6338" id="Fill-34" fill="#399AB2" mask="url(#mask-8)"></path>
                    <path d="M7.71,4.043 L5.4058,2.1616 C5.6211,2.0156 5.8423,1.8774 6.0674,1.7481 L8.3721,3.6299 C8.147,3.7593 7.9258,3.897 7.71,4.043" id="Fill-35" fill="#409EB5" mask="url(#mask-8)"></path>
                    <path d="M8.3721,3.6299 L6.0674,1.7481 C6.2617,1.6367 6.4595,1.5313 6.6602,1.4321 L8.9648,3.3135 C8.7642,3.4126 8.5664,3.5181 8.3721,3.6299" id="Fill-36" fill="#48A2B8" mask="url(#mask-8)"></path>
                    <path d="M8.9648,3.3135 L6.6602,1.4321 C6.8433,1.3423 7.0283,1.2578 7.2158,1.1797 L9.52,3.0615 C9.3325,3.1397 9.1475,3.2236 8.9648,3.3135" id="Fill-37" fill="#4FA6BB" mask="url(#mask-8)"></path>
                    <path d="M9.52,3.0615 L7.2158,1.1797 C7.3921,1.1065 7.5708,1.0381 7.7505,0.9746 L10.0552,2.856 C9.875,2.919 9.6968,2.9878 9.52,3.0615" id="Fill-38" fill="#57AABE" mask="url(#mask-8)"></path>
                    <path d="M10.0552,2.856 L7.7505,0.9746 C7.9233,0.9141 8.0982,0.8584 8.2739,0.8081 L10.5776,2.6895 C10.4023,2.7407 10.2275,2.7959 10.0552,2.856" id="Fill-39" fill="#5FAEC1" mask="url(#mask-8)"></path>
                    <path d="M10.5776,2.6895 L8.2739,0.8081 C8.4443,0.7593 8.6167,0.7149 8.79,0.6763 L11.0942,2.5581 C10.9209,2.5967 10.749,2.6411 10.5776,2.6895" id="Fill-40" fill="#67B2C5" mask="url(#mask-8)"></path>
                    <path d="M11.0942,2.5581 L8.79,0.6763 C8.8482,0.6636 8.9053,0.6509 8.9634,0.6397 C9.0796,0.6157 9.1958,0.5942 9.3101,0.5757 L11.6148,2.457 C11.4995,2.4756 11.3843,2.4971 11.2681,2.521 C11.2104,2.5327 11.1519,2.5449 11.0942,2.5581" id="Fill-41" fill="#6EB7C8" mask="url(#mask-8)"></path>
                    <path d="M11.6148,2.457 L9.3101,0.5757 C9.4844,0.5469 9.6577,0.5239 9.8291,0.5068 L12.1333,2.3882 C11.9619,2.4058 11.7895,2.4287 11.6148,2.457" id="Fill-42" fill="#77BBCB" mask="url(#mask-8)"></path>
                    <path d="M12.1333,2.3882 L9.8291,0.5068 C10.0044,0.4893 10.1777,0.478 10.3491,0.4707 L12.6543,2.353 C12.4824,2.3589 12.3086,2.3711 12.1333,2.3887" id="Fill-43" fill="#7FBFCE" mask="url(#mask-8)"></path>
                    <path d="M12.6543,2.353 L10.3491,0.4707 C10.5317,0.4644 10.7119,0.4639 10.8896,0.4702 L13.1943,2.3516 C13.0166,2.3462 12.8364,2.3467 12.6543,2.353" id="Fill-44" fill="#87C3D2" mask="url(#mask-8)"></path>
                    <path d="M13.1943,2.3516 L10.8896,0.4702 C11.082,0.4766 11.271,0.4902 11.458,0.5103 L13.7622,2.3921 C13.5757,2.3711 13.3867,2.3584 13.1943,2.3516" id="Fill-45" fill="#90C8D5" mask="url(#mask-8)"></path>
                    <path d="M13.7622,2.3921 L11.458,0.5103 C11.6655,0.5332 11.8696,0.5645 12.0703,0.6045 L14.3745,2.4858 C14.1743,2.4463 13.9697,2.4146 13.7622,2.3921" id="Fill-46" fill="#98CCD8" mask="url(#mask-8)"></path>
                    <path d="M14.3745,2.4858 L12.0703,0.6045 C12.3047,0.6509 12.5352,0.709 12.7598,0.7778 L15.0645,2.6592 C14.8398,2.5908 14.6099,2.5322 14.3745,2.4858" id="Fill-47" fill="#A1D1DC" mask="url(#mask-8)"></path>
                    <path d="M15.0645,2.6592 L12.7598,0.7778 C13.0718,0.8735 13.3711,0.9907 13.6592,1.1279 L15.9634,3.0093 C15.6758,2.8726 15.3755,2.7549 15.0645,2.6592" id="Fill-48" fill="#AAD4DF" mask="url(#mask-8)"></path>
                    <path d="M15.9634,3.0093 L13.6592,1.1279 C14.1279,1.3506 14.5635,1.6265 14.96,1.9502 L17.2647,3.8315 C16.8682,3.5078 16.4321,3.2324 15.9634,3.0093" id="Fill-49" fill="#B3D9E2" mask="url(#mask-8)"></path>
                </g>
                <path d="M34.2739,43.814 L31.9692,41.9326 C35.1411,41.2846 37.9053,38.9429 39.3599,36.0146 L41.6645,37.8965 C40.21,40.8247 37.4453,43.166 34.2739,43.814 Z" id="Fill-51" fill="#FFFFFF"></path>
                <g id="Group-62" transform="translate(31.000000, 35.520000)">
                    <mask id="mask-10" fill="white">
                        <use xlink:href="#path-9"></use>
                    </mask>
                    <g id="Clip-53"></g>
                    <path d="M3.2739,8.294 L0.9692,6.4126 C1.0273,6.4004 1.085,6.3882 1.1421,6.375 L3.4468,8.2568 C3.3892,8.27 3.3311,8.2822 3.2739,8.294" id="Fill-52" fill="#6C98B7" mask="url(#mask-10)"></path>
                    <path d="M3.4468,8.2568 L1.1421,6.375 C1.3159,6.3359 1.4893,6.292 1.6597,6.2427 L3.9644,8.124 C3.7935,8.1733 3.6206,8.2178 3.4468,8.2568" id="Fill-54" fill="#6593B3" mask="url(#mask-10)"></path>
                    <path d="M3.9644,8.124 L1.6597,6.2427 C1.835,6.1929 2.0083,6.1377 2.1807,6.0772 L4.4854,7.959 C4.313,8.019 4.1396,8.0742 3.9644,8.124" id="Fill-55" fill="#5D8DAE" mask="url(#mask-10)"></path>
                    <path d="M4.4854,7.959 L2.1807,6.0772 C2.3599,6.0147 2.5366,5.9468 2.7124,5.8735 L5.0166,7.7554 C4.8408,7.8281 4.6641,7.8965 4.4854,7.959" id="Fill-56" fill="#5589AB" mask="url(#mask-10)"></path>
                    <path d="M5.0166,7.7554 L2.7124,5.8735 C2.8979,5.7959 3.0825,5.7119 3.2637,5.6231 L5.5684,7.5049 C5.3867,7.5938 5.2031,7.6777 5.0166,7.7554" id="Fill-57" fill="#4E84A7" mask="url(#mask-10)"></path>
                    <path d="M5.5684,7.5049 L3.2637,5.6231 C3.4658,5.5249 3.6645,5.4185 3.8594,5.3062 L6.1641,7.188 C5.9687,7.3003 5.77,7.4058 5.5684,7.5049" id="Fill-58" fill="#477FA4" mask="url(#mask-10)"></path>
                    <path d="M6.1641,7.188 L3.8594,5.3062 C4.082,5.1787 4.2993,5.043 4.5127,4.8994 L6.8174,6.7808 C6.604,6.9238 6.3867,7.0606 6.1641,7.188" id="Fill-59" fill="#3F7AA0" mask="url(#mask-10)"></path>
                    <path d="M6.8174,6.7808 L4.5127,4.8994 C4.7856,4.7153 5.0508,4.5186 5.3071,4.3101 L7.6113,6.1914 C7.3555,6.3999 7.0903,6.5967 6.8174,6.7808" id="Fill-60" fill="#39769D" mask="url(#mask-10)"></path>
                    <path d="M7.6113,6.1914 L5.3071,4.3101 C6.5772,3.2774 7.6323,1.9595 8.3599,0.4946 L10.6645,2.3765 C9.937,3.8413 8.8813,5.1592 7.6113,6.1914" id="Fill-61" fill="#32719A" mask="url(#mask-10)"></path>
                </g>
                <path d="M52.6123,23.4233 L50.3076,21.542 C48.7734,20.289 47.8237,18.3193 47.8237,15.9287 L50.1284,17.811 C50.1284,20.2007 51.0776,22.1709 52.6123,23.4233 Z" id="Fill-63" fill="#58C0D9"></path>
                <g id="Group-66" transform="translate(47.000000, 15.520000)">
                    <mask id="mask-12" fill="white">
                        <use xlink:href="#path-11"></use>
                    </mask>
                    <g id="Clip-65"></g>
                    <path d="M5.6123,7.9033 L3.3076,6.022 C1.7734,4.769 0.8237,2.7993 0.8237,0.4087 L3.1284,2.291 C3.1284,4.6807 4.0776,6.6509 5.6123,7.9033" id="Fill-64" fill="#1B77B4" mask="url(#mask-12)"></path>
                </g>
                <path d="M28.2783,42.5029 L25.9736,40.6206 C27.5078,41.874 29.6274,42.4097 31.9692,41.9326 L34.2739,43.814 C31.9321,44.292 29.8125,43.7554 28.2783,42.5029 Z" id="Fill-67" fill="#FFFFFF"></path>
                <g id="Group-78" transform="translate(25.000000, 40.520000)">
                    <mask id="mask-14" fill="white">
                        <use xlink:href="#path-13"></use>
                    </mask>
                    <g id="Clip-69"></g>
                    <path d="M3.2783,1.9829 L0.9736,0.1006 C1.376,0.4297 1.8184,0.7085 2.2935,0.9326 L4.5986,2.8149 C4.1221,2.5903 3.6802,2.3106 3.2783,1.9829" id="Fill-68" fill="#B1C7D8" mask="url(#mask-14)"></path>
                    <path d="M4.5986,2.8149 L2.2935,0.9326 C2.5772,1.0664 2.8721,1.1807 3.1777,1.2749 L5.4814,3.1563 C5.1763,3.0625 4.8818,2.9487 4.5986,2.8149" id="Fill-70" fill="#A8C2D4" mask="url(#mask-14)"></path>
                    <path d="M5.4814,3.1563 L3.1777,1.2749 C3.4038,1.3438 3.6357,1.4024 3.873,1.4492 L6.1773,3.3306 C5.9399,3.2837 5.708,3.2261 5.4814,3.1563" id="Fill-71" fill="#9FBBD0" mask="url(#mask-14)"></path>
                    <path d="M6.1773,3.3306 L3.873,1.4492 C4.0713,1.4878 4.2734,1.519 4.4785,1.541 L6.7832,3.4224 C6.5776,3.4004 6.376,3.3696 6.1773,3.3306" id="Fill-72" fill="#96B4CB" mask="url(#mask-14)"></path>
                    <path d="M6.7832,3.4224 L4.4785,1.541 C4.6645,1.5615 4.853,1.5742 5.0435,1.5811 L7.3486,3.4624 C7.1572,3.4565 6.9683,3.4429 6.7832,3.4224" id="Fill-73" fill="#8DAFC7" mask="url(#mask-14)"></path>
                    <path d="M7.3486,3.4624 L5.0435,1.5811 C5.2217,1.5869 5.4014,1.5869 5.584,1.5801 L7.8877,3.4619 C7.7061,3.4683 7.5264,3.4683 7.3486,3.4624" id="Fill-74" fill="#85A9C2" mask="url(#mask-14)"></path>
                    <path d="M7.8877,3.4619 L5.584,1.5801 C5.7559,1.5732 5.9297,1.5615 6.106,1.544 L8.4106,3.4258 C8.2349,3.4434 8.0605,3.4551 7.8877,3.4619" id="Fill-75" fill="#7DA3BF" mask="url(#mask-14)"></path>
                    <path d="M8.4106,3.4258 L6.106,1.544 C6.2769,1.5269 6.4492,1.5039 6.6226,1.4756 L8.9273,3.3574 C8.7539,3.3853 8.5811,3.4082 8.4106,3.4258" id="Fill-76" fill="#759EBB" mask="url(#mask-14)"></path>
                    <path d="M8.9273,3.3574 L6.6226,1.4756 C6.7373,1.457 6.8535,1.4356 6.9692,1.4126 L9.2739,3.294 C9.1572,3.3174 9.042,3.3389 8.9273,3.3574" id="Fill-77" fill="#6C98B7" mask="url(#mask-14)"></path>
                </g>
                <path d="M37.9658,25.9331 L40.2705,27.8149 C41.8047,29.0674 42.7544,31.0376 42.7544,33.4277 C42.7544,34.9707 42.3579,36.5 41.6645,37.8965 L39.3599,36.0146 C40.0537,34.6186 40.4497,33.0893 40.4497,31.5454 C40.4497,29.1562 39.5005,27.186 37.9658,25.9331 Z" id="Fill-79" fill="#A1D422"></path>
                <g id="Group-82" transform="translate(37.000000, 25.520000)">
                    <mask id="mask-16" fill="white">
                        <use xlink:href="#path-15"></use>
                    </mask>
                    <g id="Clip-81"></g>
                    <path d="M4.6645,12.3765 L2.3599,10.4946 C3.0537,9.0986 3.4497,7.5693 3.4497,6.0254 C3.4497,3.6362 2.5005,1.666 0.9658,0.4131 L3.2705,2.2949 C4.8047,3.5474 5.7544,5.5176 5.7544,7.9077 C5.7544,9.4507 5.3579,10.98 4.6645,12.3765" id="Fill-80" fill="#3366FF" mask="url(#mask-16)"></path>
                </g>
                <path d="M62.3008,6.854 L64.605,8.7358 C63.0708,7.4829 60.9502,6.9468 58.6089,7.4243 C53.9253,8.3804 50.1284,13.0307 50.1284,17.811 L47.8237,15.9287 C47.8237,11.1489 51.6206,6.4995 56.3042,5.543 C58.6465,5.0649 60.7661,5.6011 62.3008,6.854 Z" id="Fill-83" fill="#58C0D9"></path>
                <g id="Group-102" transform="translate(47.000000, 4.520000)">
                    <mask id="mask-18" fill="white">
                        <use xlink:href="#path-17"></use>
                    </mask>
                    <g id="Clip-85"></g>
                    <path d="M3.1284,13.291 L0.8237,11.4087 C0.8237,8.2529 2.4795,5.1533 4.9521,3.1362 L7.2568,5.0176 C4.7837,7.0352 3.1284,10.1348 3.1284,13.291" id="Fill-84" fill="#1B77B4" mask="url(#mask-18)"></path>
                    <path d="M7.2568,5.0176 L4.9521,3.1362 C5.2085,2.9273 5.4736,2.7295 5.7466,2.5454 L8.0508,4.4273 C7.7778,4.6113 7.5132,4.8091 7.2568,5.0176" id="Fill-86" fill="#1D7AB5" mask="url(#mask-18)"></path>
                    <path d="M8.0508,4.4273 L5.7466,2.5454 C5.9624,2.3994 6.1831,2.2612 6.4082,2.1318 L8.7124,4.0137 C8.4873,4.1431 8.2666,4.2808 8.0508,4.4273" id="Fill-87" fill="#1F7DB7" mask="url(#mask-18)"></path>
                    <path d="M8.7124,4.0137 L6.4082,2.1318 C6.6025,2.02 6.8003,1.9146 7.001,1.8164 L9.3057,3.6978 C9.105,3.7969 8.9072,3.9024 8.7124,4.0137" id="Fill-88" fill="#217FB8" mask="url(#mask-18)"></path>
                    <path d="M9.3057,3.6978 L7.001,1.8164 C7.1841,1.7266 7.3691,1.6421 7.5566,1.5635 L9.8608,3.4448 C9.6733,3.5234 9.4888,3.6079 9.3057,3.6978" id="Fill-89" fill="#2482B9" mask="url(#mask-18)"></path>
                    <path d="M9.8608,3.4448 L7.5566,1.5635 C7.7329,1.4902 7.9111,1.4214 8.0918,1.3584 L10.396,3.2402 C10.2153,3.3032 10.0371,3.3716 9.8608,3.4448" id="Fill-90" fill="#2785BB" mask="url(#mask-18)"></path>
                    <path d="M10.396,3.2402 L8.0918,1.3584 C8.2642,1.2979 8.439,1.2427 8.6143,1.1924 L10.9185,3.0737 C10.7427,3.1235 10.5688,3.1797 10.396,3.2402" id="Fill-91" fill="#2A88BC" mask="url(#mask-18)"></path>
                    <path d="M10.9185,3.0737 L8.6143,1.1924 C8.7847,1.1436 8.9575,1.0991 9.1309,1.0601 L11.4351,2.9419 C11.2617,2.9805 11.0894,3.0244 10.9185,3.0737" id="Fill-92" fill="#2D8BBE" mask="url(#mask-18)"></path>
                    <path d="M11.4351,2.9419 L9.1309,1.0601 C9.1885,1.0469 9.2461,1.0357 9.3042,1.023 C9.4204,0.999 9.5361,0.9785 9.6514,0.959 L11.9551,2.8408 C11.8403,2.8594 11.7251,2.8809 11.6089,2.9043 C11.5508,2.9165 11.4927,2.9287 11.4351,2.9419" id="Fill-93" fill="#2E8DBF" mask="url(#mask-18)"></path>
                    <path d="M11.9551,2.8408 L9.6514,0.959 C9.8257,0.9307 9.999,0.9082 10.1699,0.8906 L12.4741,2.7725 C12.3027,2.7896 12.1299,2.8125 11.9551,2.8408" id="Fill-94" fill="#3190C1" mask="url(#mask-18)"></path>
                    <path d="M12.4741,2.7725 L10.1699,0.8906 C10.3447,0.8731 10.5181,0.8618 10.6899,0.8555 L12.9951,2.7363 C12.8228,2.7432 12.6494,2.7544 12.4741,2.7725" id="Fill-95" fill="#3394C3" mask="url(#mask-18)"></path>
                    <path d="M12.9951,2.7363 L10.6904,0.8555 C10.8726,0.8486 11.0527,0.8486 11.231,0.854 L13.5356,2.7358 C13.3574,2.7295 13.1768,2.7295 12.9951,2.7363" id="Fill-96" fill="#3697C4" mask="url(#mask-18)"></path>
                    <path d="M13.5356,2.7358 L11.231,0.854 C11.4229,0.8604 11.6118,0.874 11.7983,0.894 L14.1035,2.7759 C13.9165,2.7554 13.727,2.7417 13.5356,2.7358" id="Fill-97" fill="#389AC5" mask="url(#mask-18)"></path>
                    <path d="M14.1035,2.7759 L11.7983,0.894 C12.0059,0.917 12.2104,0.9482 12.4106,0.9878 L14.7153,2.8696 C14.5146,2.8296 14.3105,2.7983 14.1035,2.7759" id="Fill-98" fill="#3B9DC7" mask="url(#mask-18)"></path>
                    <path d="M14.7153,2.8696 L12.4111,0.9878 C12.646,1.0347 12.8765,1.0928 13.1011,1.1616 L15.4048,3.0435 C15.1807,2.9741 14.9507,2.916 14.7153,2.8696" id="Fill-99" fill="#3EA0C9" mask="url(#mask-18)"></path>
                    <path d="M15.4048,3.0435 L13.1011,1.1616 C13.4116,1.2578 13.7124,1.3745 14.0005,1.5112 L16.3047,3.3931 C16.0171,3.2559 15.7163,3.1392 15.4048,3.0435" id="Fill-100" fill="#40A3CA" mask="url(#mask-18)"></path>
                    <path d="M16.3047,3.3931 L14.0005,1.5112 C14.4687,1.7344 14.9043,2.0107 15.3008,2.334 L17.605,4.2158 C17.2085,3.8916 16.7729,3.6162 16.3047,3.3931" id="Fill-101" fill="#43A6CC" mask="url(#mask-18)"></path>
                </g>
                <polygon id="Fill-103" fill="#33729A" points="14.6206 50.8589 12.3164 48.978 24.6709 39.1758 26.9756 41.0576"></polygon>
                <path d="M34.2739,43.814 C37.4453,43.166 40.21,40.8247 41.6645,37.8965 L54.2954,42.7612 C47.9707,55.2334 33.9609,61.9243 23.0049,57.7051 C19.3569,56.3003 16.727,54.1523 14.6206,50.8589 L26.9756,41.0576 C28.4526,43.2974 31.168,44.4477 34.2739,43.814 Z" id="Fill-104" fill="#808DFF"></path>
                <path d="M18.2349,54.9907 L15.9307,53.1084 C14.5537,51.9844 13.3701,50.6245 12.3164,48.978 L14.6206,50.8589 C15.6733,52.5063 16.8584,53.8662 18.2349,54.9907 Z" id="Fill-105" fill="#FFFFFF"></path>
                <g id="Group-108" transform="translate(12.000000, 48.520000)">
                    <mask id="mask-20" fill="white">
                        <use xlink:href="#path-19"></use>
                    </mask>
                    <g id="Clip-107"></g>
                    <path d="M6.2349,6.4707 L3.9307,4.5884 C2.5537,3.4644 1.3701,2.1045 0.3164,0.458 L2.6206,2.3389 C3.6733,3.9863 4.8584,5.3462 6.2349,6.4707" id="Fill-106" fill="#32719A" mask="url(#mask-20)"></path>
                </g>
                <path d="M34.458,11.7427 C47.1094,9.1606 57.3643,17.5342 57.3643,30.4453 C57.3643,34.7446 56.4023,38.6079 54.2954,42.7612 L41.6645,37.8965 C42.3579,36.5 42.7544,34.9707 42.7544,33.4277 C42.7544,28.7104 39.0566,25.6299 34.458,26.4682 L34.458,11.7427 Z" id="Fill-109" fill="#FFFFFF"></path>
                <path d="M48.3506,13.4023 L50.6553,15.2837 C46.5098,11.8989 40.7832,10.4521 34.458,11.7427 L32.1538,9.8608 C38.479,8.5698 44.2061,10.0181 48.3506,13.4023 Z" id="Fill-110" fill="#3366FF"></path>
                <polygon id="Fill-111" fill="#219732" points="34.458 26.4682 32.1538 24.5869 32.1538 9.8608 34.458 11.7427"></polygon>
                <path d="M14.6206,50.8589 L12.3164,48.978 C5.9907,39.0874 9.7446,24.0229 20.7007,15.331 C24.3491,12.4365 27.9409,10.7212 32.1538,9.8608 L34.458,11.7427 C30.2456,12.6025 26.6533,14.3179 23.0049,17.2124 C12.0493,25.9048 8.2954,40.9687 14.6206,50.8589 Z" id="Fill-112" fill="#53BFD8"></path>
                <g id="Group-123" transform="translate(9.000000, 9.520000)">
                    <mask id="mask-22" fill="white">
                        <use xlink:href="#path-21"></use>
                    </mask>
                    <g id="Clip-114"></g>
                    <path d="M5.6206,41.3389 L3.3164,39.458 C-2.9458,29.6665 0.6704,14.8037 11.374,6.0742 L13.6782,7.9556 C2.9751,16.6856 -0.6411,31.5474 5.6206,41.3389" id="Fill-113" fill="#1D54A3" mask="url(#mask-22)"></path>
                    <path d="M13.6782,7.9556 L11.374,6.0742 C11.4819,5.9863 11.5908,5.8984 11.7007,5.811 C12.3867,5.2666 13.0708,4.7642 13.7573,4.3008 L16.0615,6.1826 C15.3755,6.646 14.6909,7.1484 14.0049,7.6924 C13.8955,7.7793 13.7866,7.8672 13.6782,7.9556" id="Fill-115" fill="#1F58A5" mask="url(#mask-22)"></path>
                    <path d="M16.0615,6.1826 L13.7573,4.3008 C14.3354,3.9111 14.915,3.5498 15.4995,3.2144 L17.8037,5.0957 C17.2197,5.4312 16.6392,5.793 16.0615,6.1826" id="Fill-116" fill="#205CA7" mask="url(#mask-22)"></path>
                    <path d="M17.8037,5.0957 L15.4995,3.2144 C15.9888,2.9331 16.4824,2.6714 16.98,2.4273 L19.2847,4.3086 C18.7866,4.5532 18.2935,4.8154 17.8037,5.0957" id="Fill-117" fill="#2361A9" mask="url(#mask-22)"></path>
                    <path d="M19.2847,4.3086 L16.98,2.4273 C17.4351,2.2041 17.894,1.9961 18.3584,1.8023 L20.6626,3.6836 C20.1987,3.8774 19.7393,4.0855 19.2847,4.3086" id="Fill-118" fill="#2464AB" mask="url(#mask-22)"></path>
                    <path d="M20.6626,3.6836 L18.3584,1.8023 C18.8042,1.6162 19.2549,1.4434 19.7124,1.2837 L22.0161,3.1655 C21.5601,3.3252 21.1094,3.4981 20.6626,3.6836" id="Fill-119" fill="#2768AD" mask="url(#mask-22)"></path>
                    <path d="M22.0161,3.1655 L19.7124,1.2837 C20.1714,1.1231 20.6362,0.9756 21.1094,0.8403 L23.4131,2.7222 C22.9409,2.8569 22.4756,3.0049 22.0161,3.1655" id="Fill-120" fill="#2A6DB0" mask="url(#mask-22)"></path>
                    <path d="M23.4131,2.7222 L21.1094,0.8403 C21.602,0.6997 22.1035,0.5718 22.6138,0.4565 L24.918,2.3384 C24.4077,2.4531 23.9067,2.5801 23.4131,2.7222" id="Fill-121" fill="#2C71B1" mask="url(#mask-22)"></path>
                    <path d="M24.918,2.3384 L22.6138,0.4565 C22.7925,0.4165 22.9727,0.3784 23.1538,0.3408 L25.458,2.2227 C25.2769,2.2598 25.0967,2.2983 24.918,2.3384" id="Fill-122" fill="#2E75B3" mask="url(#mask-22)"></path>
                </g>
                <path d="M25.7935,36.8896 C25.7935,38.5 26.2246,39.9189 26.9756,41.0576 L14.6206,50.8589 C8.2954,40.9687 12.0493,25.9048 23.0049,17.2124 C26.6533,14.3179 30.2456,12.6025 34.458,11.7427 L34.458,26.4682 C34.397,26.479 34.3354,26.4907 34.2739,26.5034 C29.5903,27.4595 25.7935,32.1099 25.7935,36.8896 Z" id="Fill-124" fill="#6699FF"></path>
                <path d="M36.4858,60.4844 C36.4858,55.7041 40.2827,51.0542 44.9663,50.0976 C49.6499,49.1421 53.4463,52.2417 53.4463,57.0224 C53.4463,61.8022 49.6499,66.4516 44.9663,67.4082 C40.2827,68.3638 36.4858,65.2641 36.4858,60.4844 Z" id="Fill-125" fill="#FFFFFF"></path>
                <path d="M51.7871,40.4267 C51.7871,35.6465 55.5845,30.9966 60.2681,30.041 C64.9517,29.0845 68.7485,32.185 68.7485,36.9648 C68.7485,41.7451 64.9517,46.3945 60.2681,47.3511 C55.5845,48.3071 51.7871,45.2075 51.7871,40.4267 Z" id="Fill-126" fill="#6699FF"></path>
                <path d="M50.1284,17.811 C50.1284,13.0307 53.9253,8.3804 58.6089,7.4243 C63.2925,6.4687 67.0889,9.5688 67.0889,14.3486 C67.0889,19.1289 63.2925,23.7788 58.6089,24.7349 C53.9253,25.6909 50.1284,22.5908 50.1284,17.811 Z" id="Fill-127" fill="#808DFF"></path>
            </g>
        </g>
    </g>
</svg>